<?xml version="1.0" encoding="UTF-8"?>
<!DOCTYPE svg PUBLIC "-//W3C//DTD SVG 1.1//EN" "http://www.w3.org/Graphics/SVG/1.1/DTD/svg11.dtd">
<!-- Creator: CorelDRAW 2026 -->
<svg xmlns="http://www.w3.org/2000/svg" xml:space="preserve" width="271.124mm" height="270.933mm" version="1.1" style="shape-rendering:geometricPrecision; text-rendering:geometricPrecision; image-rendering:optimizeQuality; fill-rule:evenodd; clip-rule:evenodd"
viewBox="0 0 3321.74 3319.4"
 xmlns:xlink="http://www.w3.org/1999/xlink"
 xmlns:xodm="http://www.corel.com/coreldraw/odm/2003">
 <defs>
  <style type="text/css">
   <![CDATA[
    .fil1 {fill:none}
    .fil0 {fill:#D5EDF7;fill-rule:nonzero}
   ]]>
  </style>
 </defs>
 <g id="Слой_x0020_1">
  <metadata id="CorelCorpID_0Corel-Layer"/>
  <g id="_41352140224">
   <g>
    <g>
     <path class="fil0" d="M3319.4 2635.31l0 -549.61 -138.74 134.36 -468.74 -453.99c-30.04,-25.07 -57.27,-25.07 -81.69,0l-417.84 404.55 -142.63 -137.93c-23.23,-19.77 -43.71,-19.77 -61.43,0l-154.79 149.76 -213.95 -207.14c-20.64,-18.37 -39.82,-18.37 -57.54,0l-160.95 155.92 -422.06 -408.77c-23.99,-23.88 -48.14,-23.88 -72.45,0l-364.03 363.22 -163.05 -157.87c-19.02,-19.12 -38.04,-19.12 -57.05,0l-252.68 244.74 -89.79 -86.88 0 549.61 3319.4 0z"/>
    </g>
   </g>
  </g>
  <rect class="fil1" x="2.33" width="3319.4" height="3319.4"/>
 </g>
</svg>
